<svg xmlns="http://www.w3.org/2000/svg" xmlns:xlink="http://www.w3.org/1999/xlink" width="1280" zoomAndPan="magnify" viewBox="0 0 960 540.000001" height="720" preserveAspectRatio="xMidYMid meet" version="1.0"><defs><clipPath id="e844ec679f"><path d="M 0.886719 0 L 959.113281 0 L 959.113281 539 L 0.886719 539 Z M 0.886719 0 " clip-rule="nonzero"/></clipPath><clipPath id="a2433743c6"><path d="M 466 71 L 805 71 L 805 539 L 466 539 Z M 466 71 " clip-rule="nonzero"/></clipPath><clipPath id="76f7c3efe0"><path d="M 384 145 L 695 145 L 695 539 L 384 539 Z M 384 145 " clip-rule="nonzero"/></clipPath><clipPath id="a6e357fcfb"><path d="M 309 210 L 588 210 L 588 539 L 309 539 Z M 309 210 " clip-rule="nonzero"/></clipPath><clipPath id="9934ce4e04"><path d="M 801 0 L 959.113281 0 L 959.113281 341.007812 L 801 341.007812 Z M 801 0 " clip-rule="nonzero"/></clipPath><clipPath id="b5e9c5c48c"><path d="M 881 0 L 959.113281 0 L 959.113281 286 L 881 286 Z M 881 0 " clip-rule="nonzero"/></clipPath><clipPath id="0fdd0992a5"><path d="M 957 0 L 959.113281 0 L 959.113281 233 L 957 233 Z M 957 0 " clip-rule="nonzero"/></clipPath><clipPath id="813aa4ea70"><path d="M 914 0 L 959.113281 0 L 959.113281 68 L 914 68 Z M 914 0 " clip-rule="nonzero"/></clipPath><clipPath id="1e127f3036"><path d="M 0.886719 0 L 21 0 L 21 89 L 0.886719 89 Z M 0.886719 0 " clip-rule="nonzero"/></clipPath><clipPath id="354f3523ee"><path d="M 0.886719 0 L 74 0 L 74 43 L 0.886719 43 Z M 0.886719 0 " clip-rule="nonzero"/></clipPath><clipPath id="8ef1d3c993"><path d="M 0.886719 0 L 187 0 L 187 313.011719 L 0.886719 313.011719 Z M 0.886719 0 " clip-rule="nonzero"/></clipPath><clipPath id="36ab84db84"><path d="M 0.886719 0 L 107 0 L 107 260 L 0.886719 260 Z M 0.886719 0 " clip-rule="nonzero"/></clipPath><clipPath id="9728090e08"><path d="M 0.886719 0 L 31 0 L 31 208 L 0.886719 208 Z M 0.886719 0 " clip-rule="nonzero"/></clipPath><clipPath id="ccd93b0bb8"><path d="M 0.886719 312.832031 L 235 312.832031 L 235 539 L 0.886719 539 Z M 0.886719 312.832031 " clip-rule="nonzero"/></clipPath><clipPath id="1cc158eedd"><path d="M 0.886719 368 L 155 368 L 155 539 L 0.886719 539 Z M 0.886719 368 " clip-rule="nonzero"/></clipPath><clipPath id="2bcb556b3d"><path d="M 0.886719 420 L 79 420 L 79 539 L 0.886719 539 Z M 0.886719 420 " clip-rule="nonzero"/></clipPath><clipPath id="5319a42414"><path d="M 0.886719 485 L 9 485 L 9 539 L 0.886719 539 Z M 0.886719 485 " clip-rule="nonzero"/></clipPath><clipPath id="f140947446"><path d="M 949 483 L 959.113281 483 L 959.113281 539 L 949 539 Z M 949 483 " clip-rule="nonzero"/></clipPath><clipPath id="c8dd357eda"><path d="M 890 536 L 959.113281 536 L 959.113281 539 L 890 539 Z M 890 536 " clip-rule="nonzero"/></clipPath><clipPath id="18ab667a7d"><path d="M 723 312.832031 L 959.113281 312.832031 L 959.113281 539 L 723 539 Z M 723 312.832031 " clip-rule="nonzero"/></clipPath><clipPath id="5a53d78c53"><path d="M 803 366 L 959.113281 366 L 959.113281 539 L 803 539 Z M 803 366 " clip-rule="nonzero"/></clipPath><clipPath id="383de13550"><path d="M 880 418 L 959.113281 418 L 959.113281 539 L 880 539 Z M 880 418 " clip-rule="nonzero"/></clipPath><clipPath id="46aabb4cd3"><path d="M 466 427 L 805 427 L 805 539 L 466 539 Z M 466 427 " clip-rule="nonzero"/></clipPath><clipPath id="50415a6080"><path d="M 384 502 L 695 502 L 695 539 L 384 539 Z M 384 502 " clip-rule="nonzero"/></clipPath><clipPath id="d677f86679"><path d="M 152 189.96875 L 492 189.96875 L 492 539 L 152 539 Z M 152 189.96875 " clip-rule="nonzero"/></clipPath><clipPath id="0807c5f2be"><path d="M 263 264 L 573 264 L 573 539 L 263 539 Z M 263 264 " clip-rule="nonzero"/></clipPath><clipPath id="e60e6997a0"><path d="M 370 337 L 648 337 L 648 539 L 370 539 Z M 370 337 " clip-rule="nonzero"/></clipPath></defs><g clip-path="url(#e844ec679f)"><path fill="#ffffff" d="M 0.886719 0 L 959.113281 0 L 959.113281 539 L 0.886719 539 Z M 0.886719 0 " fill-opacity="1" fill-rule="nonzero"/><path fill="#50efcd" d="M 0.886719 0 L 959.113281 0 L 959.113281 539 L 0.886719 539 Z M 0.886719 0 " fill-opacity="1" fill-rule="nonzero"/></g><g clip-path="url(#a2433743c6)"><path fill="#aaffed" d="M 719.230469 488.140625 C 833.304688 372.480469 830.136719 193.453125 728.738281 71.457031 C 700.21875 96.808594 685.960938 109.480469 685.960938 109.480469 C 762.007812 223.554688 763.59375 343.964844 679.621094 439.023438 C 543.371094 557.851562 475.242188 618.054688 475.242188 618.054688 C 462.566406 635.484375 464.152344 665.585938 479.996094 705.195312 C 638.429688 559.433594 719.230469 488.140625 719.230469 488.140625 Z M 719.230469 488.140625 " fill-opacity="1" fill-rule="evenodd"/></g><g clip-path="url(#76f7c3efe0)"><path fill="#aaffed" d="M 606.742188 434.273438 C 693.882812 355.054688 730.320312 252.074219 647.9375 145.921875 C 622.585938 168.101562 609.910156 179.191406 609.910156 179.191406 C 670.117188 269.5 640.015625 332.875 573.472656 391.496094 C 453.0625 497.644531 392.855469 549.929688 392.855469 549.929688 C 380.183594 565.773438 381.765625 591.121094 396.027344 627.5625 C 537.03125 499.230469 606.742188 434.273438 606.742188 434.273438 Z M 606.742188 434.273438 " fill-opacity="1" fill-rule="evenodd"/></g><g clip-path="url(#a6e357fcfb)"><path fill="#aaffed" d="M 532.277344 362.976562 C 600.40625 302.769531 597.238281 252.074219 567.132812 210.878906 C 541.785156 234.644531 529.109375 245.734375 529.109375 245.734375 C 529.109375 250.488281 549.707031 274.253906 499.007812 320.199219 C 378.597656 424.765625 316.808594 478.632812 316.808594 478.632812 C 305.71875 494.476562 307.304688 519.824219 321.5625 554.679688 C 462.566406 426.351562 532.277344 362.976562 532.277344 362.976562 Z M 532.277344 362.976562 " fill-opacity="1" fill-rule="evenodd"/></g><path fill="#aaffed" d="M 239.175781 49.277344 C 123.519531 163.351562 126.6875 342.378906 228.085938 464.375 C 256.605469 439.023438 270.863281 426.351562 270.863281 426.351562 C 196.398438 312.277344 193.230469 191.867188 277.199219 96.808594 C 413.453125 -22.019531 481.582031 -82.222656 481.582031 -82.222656 C 495.839844 -99.652344 494.253906 -129.753906 476.828125 -169.363281 C 318.394531 -23.601562 239.175781 49.277344 239.175781 49.277344 Z M 239.175781 49.277344 " fill-opacity="1" fill-rule="evenodd"/><path fill="#aaffed" d="M 350.082031 101.558594 C 264.527344 180.777344 226.5 283.757812 310.472656 389.910156 C 335.820312 367.730469 346.910156 356.640625 346.910156 356.640625 C 288.289062 266.332031 316.808594 202.957031 383.351562 144.335938 C 503.761719 38.1875 565.550781 -14.097656 565.550781 -14.097656 C 576.640625 -29.941406 575.054688 -55.289062 560.796875 -91.730469 C 419.792969 36.601562 350.082031 101.558594 350.082031 101.558594 Z M 350.082031 101.558594 " fill-opacity="1" fill-rule="evenodd"/><path fill="#aaffed" d="M 424.542969 172.855469 C 358 233.0625 359.585938 283.757812 391.273438 324.953125 C 416.621094 302.769531 427.710938 290.097656 427.710938 290.097656 C 427.710938 285.34375 407.117188 261.578125 459.398438 215.632812 C 579.808594 111.066406 640.015625 58.785156 640.015625 58.785156 C 651.105469 41.355469 649.519531 16.007812 635.261719 -18.847656 C 495.839844 109.480469 424.542969 172.855469 424.542969 172.855469 Z M 424.542969 172.855469 " fill-opacity="1" fill-rule="evenodd"/><g clip-path="url(#9934ce4e04)"><path fill="#aaffed" d="M 863.191406 185.164062 C 781.289062 102.121094 783.5625 -26.421875 856.367188 -114.011719 C 876.84375 -95.8125 887.078125 -86.710938 887.078125 -86.710938 C 832.476562 -4.808594 831.339844 81.644531 891.628906 149.898438 C 989.460938 235.214844 1038.375 278.441406 1038.375 278.441406 C 1047.476562 290.957031 1046.335938 312.570312 1034.960938 341.007812 C 921.207031 236.351562 863.191406 185.164062 863.191406 185.164062 Z M 863.191406 185.164062 " fill-opacity="1" fill-rule="evenodd"/></g><g clip-path="url(#b5e9c5c48c)"><path fill="#aaffed" d="M 943.957031 146.488281 C 881.390625 89.609375 855.226562 15.667969 914.382812 -60.546875 C 932.582031 -44.621094 941.683594 -36.660156 941.683594 -36.660156 C 898.457031 28.179688 920.070312 73.683594 967.847656 115.773438 C 1054.300781 191.988281 1097.527344 229.527344 1097.527344 229.527344 C 1106.628906 240.902344 1105.488281 259.105469 1095.253906 285.269531 C 994.011719 193.125 943.957031 146.488281 943.957031 146.488281 Z M 943.957031 146.488281 " fill-opacity="1" fill-rule="evenodd"/></g><g clip-path="url(#0fdd0992a5)"><path fill="#aaffed" d="M 997.421875 95.296875 C 948.507812 52.070312 950.78125 15.667969 972.394531 -13.90625 C 990.597656 3.15625 999.699219 11.117188 999.699219 11.117188 C 999.699219 14.53125 984.910156 31.59375 1021.3125 64.582031 C 1107.765625 139.660156 1152.128906 178.339844 1152.128906 178.339844 C 1160.09375 189.714844 1158.953125 207.914062 1148.71875 232.941406 C 1047.476562 140.800781 997.421875 95.296875 997.421875 95.296875 Z M 997.421875 95.296875 " fill-opacity="1" fill-rule="evenodd"/></g><g clip-path="url(#813aa4ea70)"><path fill="#aaffed" d="M 1074.777344 -41.210938 C 1122.554688 2.019531 1121.414062 38.417969 1098.664062 67.996094 C 1080.464844 52.070312 1072.5 42.96875 1072.5 42.96875 C 1072.5 39.558594 1087.289062 22.492188 1049.75 -10.496094 C 963.296875 -85.574219 920.070312 -123.113281 920.070312 -123.113281 C 912.105469 -135.625 913.242188 -153.828125 923.480469 -178.851562 C 1023.585938 -86.710938 1074.777344 -41.210938 1074.777344 -41.210938 Z M 1074.777344 -41.210938 " fill-opacity="1" fill-rule="evenodd"/></g><g clip-path="url(#1e127f3036)"><path fill="#aaffed" d="M -139.582031 -118.308594 C -202.144531 -61.429688 -228.308594 12.507812 -169.15625 88.726562 C -150.957031 72.800781 -141.855469 64.835938 -141.855469 64.835938 C -185.082031 -0.00390625 -163.46875 -45.503906 -115.691406 -87.59375 C -29.238281 -163.8125 13.988281 -201.351562 13.988281 -201.351562 C 23.089844 -212.726562 21.953125 -230.925781 11.714844 -257.089844 C -89.527344 -164.949219 -139.582031 -118.308594 -139.582031 -118.308594 Z M -139.582031 -118.308594 " fill-opacity="1" fill-rule="evenodd"/></g><g clip-path="url(#354f3523ee)"><path fill="#aaffed" d="M -86.117188 -67.117188 C -135.03125 -23.890625 -132.753906 12.507812 -111.140625 42.085938 C -92.941406 25.023438 -83.839844 17.058594 -83.839844 17.058594 C -83.839844 13.648438 -98.628906 -3.417969 -62.226562 -36.40625 C 24.226562 -111.484375 68.589844 -150.160156 68.589844 -150.160156 C 76.554688 -161.535156 75.417969 -179.738281 65.179688 -204.761719 C -36.0625 -112.621094 -86.117188 -67.117188 -86.117188 -67.117188 Z M -86.117188 -67.117188 " fill-opacity="1" fill-rule="evenodd"/></g><g clip-path="url(#8ef1d3c993)"><path fill="#aaffed" d="M 124.332031 158.117188 C 207.371094 76.210938 205.097656 -52.332031 132.292969 -139.921875 C 111.820312 -121.722656 101.582031 -112.621094 101.582031 -112.621094 C 155.046875 -30.71875 157.320312 55.738281 97.03125 123.988281 C -0.800781 209.304688 -49.714844 252.535156 -49.714844 252.535156 C -59.953125 265.046875 -58.8125 286.660156 -46.300781 315.097656 C 67.453125 210.445312 124.332031 158.117188 124.332031 158.117188 Z M 124.332031 158.117188 " fill-opacity="1" fill-rule="evenodd"/></g><g clip-path="url(#36ab84db84)"><path fill="#aaffed" d="M 44.703125 120.578125 C 106.128906 63.699219 133.433594 -10.242188 73.140625 -86.457031 C 54.941406 -70.53125 46.976562 -62.570312 46.976562 -62.570312 C 89.066406 2.273438 68.589844 47.773438 20.8125 89.863281 C -65.640625 166.078125 -110.003906 203.617188 -110.003906 203.617188 C -117.96875 214.992188 -116.828125 233.195312 -106.589844 259.359375 C -5.347656 167.214844 44.703125 120.578125 44.703125 120.578125 Z M 44.703125 120.578125 " fill-opacity="1" fill-rule="evenodd"/></g><g clip-path="url(#9728090e08)"><path fill="#aaffed" d="M -8.761719 69.386719 C 39.015625 26.160156 37.878906 -10.242188 15.125 -39.816406 C -3.074219 -23.890625 -11.035156 -14.792969 -11.035156 -14.792969 C -11.035156 -11.378906 3.75 5.683594 -33.789062 38.671875 C -120.242188 113.75 -163.46875 151.292969 -163.46875 151.292969 C -171.433594 163.804688 -170.292969 182.003906 -160.054688 207.03125 C -59.953125 114.890625 -8.761719 69.386719 -8.761719 69.386719 Z M -8.761719 69.386719 " fill-opacity="1" fill-rule="evenodd"/></g><g clip-path="url(#ccd93b0bb8)"><path fill="#aaffed" d="M 172.652344 468.675781 C 254.558594 551.714844 252.28125 680.261719 179.476562 767.851562 C 159.003906 749.652344 148.765625 740.550781 148.765625 740.550781 C 203.367188 658.644531 204.503906 572.191406 144.214844 503.9375 C 46.386719 418.621094 -2.53125 375.394531 -2.53125 375.394531 C -11.628906 362.882812 -10.492188 341.269531 0.882812 312.832031 C 114.636719 417.484375 172.652344 468.675781 172.652344 468.675781 Z M 172.652344 468.675781 " fill-opacity="1" fill-rule="evenodd"/></g><g clip-path="url(#1cc158eedd)"><path fill="#aaffed" d="M 91.886719 507.351562 C 154.453125 564.230469 180.617188 638.171875 121.464844 714.386719 C 103.261719 698.460938 94.160156 690.496094 94.160156 690.496094 C 137.390625 625.65625 115.777344 580.15625 68 538.066406 C -18.457031 461.851562 -61.683594 424.308594 -61.683594 424.308594 C -70.78125 412.933594 -69.644531 394.734375 -59.40625 368.570312 C 41.835938 460.710938 91.886719 507.351562 91.886719 507.351562 Z M 91.886719 507.351562 " fill-opacity="1" fill-rule="evenodd"/></g><g clip-path="url(#2bcb556b3d)"><path fill="#aaffed" d="M 38.421875 558.542969 C 87.335938 601.769531 85.0625 638.171875 63.449219 667.746094 C 45.246094 650.683594 36.148438 642.71875 36.148438 642.71875 C 36.148438 639.308594 50.933594 622.246094 14.535156 589.253906 C -71.921875 514.175781 -116.285156 475.5 -116.285156 475.5 C -124.25 464.125 -123.109375 445.925781 -112.871094 420.898438 C -11.628906 513.039062 38.421875 558.542969 38.421875 558.542969 Z M 38.421875 558.542969 " fill-opacity="1" fill-rule="evenodd"/></g><g clip-path="url(#5319a42414)"><path fill="#aaffed" d="M -172.023438 783.777344 C -255.066406 701.875 -252.792969 573.328125 -179.988281 485.738281 C -159.511719 503.9375 -149.273438 513.039062 -149.273438 513.039062 C -202.738281 594.945312 -205.015625 681.398438 -144.722656 749.652344 C -46.894531 834.96875 2.019531 878.195312 2.019531 878.195312 C 12.257812 890.707031 11.121094 912.320312 -1.390625 940.757812 C -115.148438 836.105469 -172.023438 783.777344 -172.023438 783.777344 Z M -172.023438 783.777344 " fill-opacity="1" fill-rule="evenodd"/></g><g clip-path="url(#f140947446)"><path fill="#aaffed" d="M 1130.878906 782.640625 C 1212.78125 699.597656 1210.507812 571.054688 1137.703125 483.464844 C 1117.226562 501.664062 1106.988281 510.765625 1106.988281 510.765625 C 1161.59375 592.667969 1162.730469 679.121094 1102.441406 747.375 C 1004.609375 832.691406 955.695312 875.917969 955.695312 875.917969 C 946.59375 888.433594 947.734375 910.046875 959.109375 938.484375 C 1072.863281 833.828125 1130.878906 782.640625 1130.878906 782.640625 Z M 1130.878906 782.640625 " fill-opacity="1" fill-rule="evenodd"/></g><g clip-path="url(#c8dd357eda)"><path fill="#aaffed" d="M 1050.113281 743.960938 C 1112.679688 687.085938 1138.839844 613.144531 1079.6875 536.929688 C 1061.488281 552.855469 1052.386719 560.816406 1052.386719 560.816406 C 1095.613281 625.65625 1074 671.160156 1026.222656 713.25 C 939.769531 789.464844 896.542969 827.003906 896.542969 827.003906 C 887.441406 838.378906 888.578125 856.582031 898.816406 882.746094 C 1000.058594 790.601562 1050.113281 743.960938 1050.113281 743.960938 Z M 1050.113281 743.960938 " fill-opacity="1" fill-rule="evenodd"/></g><g clip-path="url(#18ab667a7d)"><path fill="#aaffed" d="M 786.199219 467.539062 C 703.160156 549.441406 705.433594 677.984375 778.238281 765.578125 C 798.714844 747.375 808.953125 738.273438 808.953125 738.273438 C 755.484375 656.371094 753.210938 569.917969 813.5 501.664062 C 911.332031 416.347656 960.246094 373.121094 960.246094 373.121094 C 970.484375 360.609375 969.347656 338.996094 956.832031 310.554688 C 843.078125 415.210938 786.199219 467.539062 786.199219 467.539062 Z M 786.199219 467.539062 " fill-opacity="1" fill-rule="evenodd"/></g><g clip-path="url(#5a53d78c53)"><path fill="#aaffed" d="M 865.828125 505.078125 C 804.402344 561.953125 777.101562 635.894531 837.390625 712.113281 C 855.589844 696.1875 863.554688 688.222656 863.554688 688.222656 C 821.464844 623.382812 841.941406 577.878906 889.71875 535.789062 C 976.171875 459.574219 1020.535156 422.035156 1020.535156 422.035156 C 1028.5 410.660156 1027.363281 392.460938 1017.125 366.296875 C 915.882812 458.4375 865.828125 505.078125 865.828125 505.078125 Z M 865.828125 505.078125 " fill-opacity="1" fill-rule="evenodd"/></g><g clip-path="url(#383de13550)"><path fill="#aaffed" d="M 919.292969 556.265625 C 871.515625 599.492188 872.652344 635.894531 895.40625 665.472656 C 913.605469 649.546875 921.570312 640.445312 921.570312 640.445312 C 921.570312 637.03125 906.78125 619.96875 944.320312 586.980469 C 1030.773438 511.902344 1074 474.363281 1074 474.363281 C 1081.964844 461.851562 1080.828125 443.648438 1070.589844 418.621094 C 970.484375 510.765625 919.292969 556.265625 919.292969 556.265625 Z M 919.292969 556.265625 " fill-opacity="1" fill-rule="evenodd"/></g><g clip-path="url(#46aabb4cd3)"><path fill="#aaffed" d="M 719.230469 844.300781 C 833.304688 728.640625 830.136719 549.613281 728.738281 427.617188 C 700.21875 452.96875 685.960938 465.640625 685.960938 465.640625 C 762.007812 579.714844 763.59375 700.125 679.621094 795.183594 C 543.371094 914.011719 475.242188 974.214844 475.242188 974.214844 C 462.566406 991.640625 464.152344 1021.746094 479.996094 1061.351562 C 638.429688 915.59375 719.230469 844.300781 719.230469 844.300781 Z M 719.230469 844.300781 " fill-opacity="1" fill-rule="evenodd"/></g><g clip-path="url(#50415a6080)"><path fill="#aaffed" d="M 606.742188 790.429688 C 693.882812 711.214844 730.320312 608.234375 647.9375 502.082031 C 622.585938 524.261719 609.910156 535.351562 609.910156 535.351562 C 670.117188 625.660156 640.015625 689.035156 573.472656 747.652344 C 453.0625 853.804688 392.855469 906.089844 392.855469 906.089844 C 380.183594 921.929688 381.765625 947.28125 396.027344 983.722656 C 537.03125 855.390625 606.742188 790.429688 606.742188 790.429688 Z M 606.742188 790.429688 " fill-opacity="1" fill-rule="evenodd"/></g><g clip-path="url(#d677f86679)"><path fill="#aaffed" d="M 239.175781 405.4375 C 123.519531 519.507812 126.6875 698.539062 228.085938 820.535156 C 256.605469 795.183594 270.863281 782.507812 270.863281 782.507812 C 196.398438 668.4375 193.230469 548.027344 277.199219 452.96875 C 413.453125 334.140625 481.582031 273.9375 481.582031 273.9375 C 495.839844 256.507812 494.253906 226.40625 476.828125 186.796875 C 318.394531 332.558594 239.175781 405.4375 239.175781 405.4375 Z M 239.175781 405.4375 " fill-opacity="1" fill-rule="evenodd"/></g><g clip-path="url(#0807c5f2be)"><path fill="#aaffed" d="M 350.082031 457.71875 C 264.527344 536.9375 226.5 639.917969 310.472656 746.070312 C 335.820312 723.890625 346.910156 712.796875 346.910156 712.796875 C 288.289062 622.492188 316.808594 559.117188 383.351562 500.496094 C 503.761719 394.347656 565.550781 342.0625 565.550781 342.0625 C 576.640625 326.21875 575.054688 300.871094 560.796875 264.429688 C 419.792969 392.761719 350.082031 457.71875 350.082031 457.71875 Z M 350.082031 457.71875 " fill-opacity="1" fill-rule="evenodd"/></g><g clip-path="url(#e60e6997a0)"><path fill="#aaffed" d="M 424.542969 529.015625 C 358 589.21875 359.585938 639.917969 391.273438 681.113281 C 416.621094 658.929688 427.710938 646.257812 427.710938 646.257812 C 427.710938 641.503906 407.117188 617.738281 459.398438 571.792969 C 579.808594 467.226562 640.015625 414.941406 640.015625 414.941406 C 651.105469 397.515625 649.519531 372.164062 635.261719 337.3125 C 495.839844 465.640625 424.542969 529.015625 424.542969 529.015625 Z M 424.542969 529.015625 " fill-opacity="1" fill-rule="evenodd"/></g></svg>